<svg width="720" height="1040" xmlns="http://www.w3.org/2000/svg" xmlns:xlink="http://www.w3.org/1999/xlink" overflow="hidden"><g><rect x="0" y="0" width="720" height="1040" fill="#FFFFFF"/><rect x="0" y="0" width="306" height="533" fill="#FF0000"/><path d="M11 20.5002C11 15.2534 15.2534 11 20.5002 11L58.4998 11C63.7466 11 68 15.2534 68 20.5002L68 58.4998C68 63.7466 63.7466 68 58.4998 68L20.5002 68C15.2534 68 11 63.7466 11 58.4998Z" fill="#FFFFFF" fill-rule="evenodd"/><path d="M11 40 67.4762 40.0001" stroke="#FF0000" stroke-width="2" stroke-miterlimit="8" fill="none" fill-rule="evenodd"/><path d="M11.2178 20.5411C11.2178 15.2717 15.4549 11 20.6817 11L58.5361 11C63.7629 11 68 15.2717 68 20.5411 67.9304 26.6709 67.8609 32.8007 67.7914 38.9304 10.9614 38.9799 68.465 39.1904 11.0092 38.5097 10.9396 32.3098 11.2874 26.741 11.2178 20.5411Z" fill="#FFFF00" fill-rule="evenodd"/><path d="M87 20.3335C87 15.1788 91.1788 11 96.3335 11L133.666 11C138.821 11 143 15.1788 143 20.3335L143 58.6665C143 63.8213 138.821 68 133.666 68L96.3335 68C91.1788 68 87 63.8213 87 58.6665Z" fill="#FFFFFF" fill-rule="evenodd"/><path d="M87 40 143.476 40.0001" stroke="#FF0000" stroke-width="2" stroke-miterlimit="8" fill="none" fill-rule="evenodd"/><path d="M87.2178 20.5411C87.2178 15.2717 91.4549 11 96.6817 11L134.536 11C139.763 11 144 15.2717 144 20.5411 143.93 26.6709 143.861 32.8007 143.791 38.9304 86.9614 38.9799 144.465 39.1904 87.0092 38.5097 86.9396 32.3098 87.2874 26.741 87.2178 20.5411Z" fill="#FFFF00" fill-rule="evenodd"/><path d="M11 96.5002C11 91.2534 15.2534 87 20.5002 87L58.4998 87C63.7466 87 68 91.2534 68 96.5002L68 134.5C68 139.747 63.7466 144 58.4998 144L20.5002 144C15.2534 144 11 139.747 11 134.5Z" fill="#FFFFFF" fill-rule="evenodd"/><path d="M11 115 67.4762 115" stroke="#FF0000" stroke-width="2" stroke-miterlimit="8" fill="none" fill-rule="evenodd"/><path d="M11.2178 96.5411C11.2178 91.2717 15.4549 87 20.6817 87L58.5361 87C63.7629 87 68 91.2717 68 96.5411 67.9304 102.671 67.8609 108.801 67.7914 114.93 10.9614 114.98 68.465 115.19 11.0092 114.51 10.9396 108.31 11.2874 102.741 11.2178 96.5411Z" fill="#FFFF00" fill-rule="evenodd"/><path d="M87 96.3335C87 91.1787 91.1788 87 96.3335 87L133.666 87C138.821 87 143 91.1787 143 96.3335L143 134.667C143 139.821 138.821 144 133.666 144L96.3335 144C91.1788 144 87 139.821 87 134.667Z" fill="#FFFFFF" fill-rule="evenodd"/><path d="M87 115 143.476 115" stroke="#FF0000" stroke-width="2" stroke-miterlimit="8" fill="none" fill-rule="evenodd"/><path d="M87.2178 96.5411C87.2178 91.2717 91.4549 87 96.6817 87L134.536 87C139.763 87 144 91.2717 144 96.5411 143.93 102.671 143.861 108.801 143.791 114.93 86.9614 114.98 144.465 115.19 87.0092 114.51 86.9396 108.31 87.2874 102.741 87.2178 96.5411Z" fill="#FFFF00" fill-rule="evenodd"/><path d="M163 96.3335C163 91.1787 167.179 87 172.334 87L209.666 87C214.821 87 219 91.1787 219 96.3335L219 134.667C219 139.821 214.821 144 209.666 144L172.334 144C167.179 144 163 139.821 163 134.667Z" fill="#FFFFFF" fill-rule="evenodd"/><path d="M163 115 219.476 115" stroke="#FF0000" stroke-width="2" stroke-miterlimit="8" fill="none" fill-rule="evenodd"/><path d="M163.214 96.5411C163.214 91.2717 167.377 87 172.512 87L209.702 87C214.837 87 219 91.2717 219 96.5411 218.932 102.671 218.863 108.801 218.795 114.93 162.962 114.98 219.457 115.19 163.009 114.51 162.941 108.31 163.282 102.741 163.214 96.5411Z" fill="#FFFF00" fill-rule="evenodd"/><path d="M11 172.334C11 167.179 15.1788 163 20.3335 163L58.6665 163C63.8213 163 68 167.179 68 172.334L68 209.666C68 214.821 63.8213 219 58.6665 219L20.3335 219C15.1788 219 11 214.821 11 209.666Z" fill="#FFFFFF" fill-rule="evenodd"/><path d="M11 191 67.4762 191" stroke="#FF0000" stroke-width="2" stroke-miterlimit="8" fill="none" fill-rule="evenodd"/><path d="M11.2178 172.2C11.2178 167.119 15.4549 163 20.6817 163L58.5361 163C63.7629 163 68 167.119 68 172.2 67.9304 178.111 67.8609 184.022 67.7914 189.933 10.9614 189.981 68.465 190.184 11.0092 189.527 10.9396 183.549 11.2874 178.179 11.2178 172.2Z" fill="#FFFF00" fill-rule="evenodd"/><path d="M87 172.334C87 167.179 91.1788 163 96.3335 163L133.666 163C138.821 163 143 167.179 143 172.334L143 209.666C143 214.821 138.821 219 133.666 219L96.3335 219C91.1788 219 87 214.821 87 209.666Z" fill="#FFFFFF" fill-rule="evenodd"/><path d="M87 191 143.476 191" stroke="#FF0000" stroke-width="2" stroke-miterlimit="8" fill="none" fill-rule="evenodd"/><path d="M87.2178 172.2C87.2178 167.119 91.4549 163 96.6817 163L134.536 163C139.763 163 144 167.119 144 172.2 143.93 178.111 143.861 184.022 143.791 189.933 86.9614 189.981 144.465 190.184 87.0092 189.527 86.9396 183.549 87.2874 178.179 87.2178 172.2Z" fill="#FFFF00" fill-rule="evenodd"/><path d="M163 172.334C163 167.179 167.179 163 172.334 163L209.666 163C214.821 163 219 167.179 219 172.334L219 209.666C219 214.821 214.821 219 209.666 219L172.334 219C167.179 219 163 214.821 163 209.666Z" fill="#FFFFFF" fill-rule="evenodd"/><path d="M163 191 219.476 191" stroke="#FF0000" stroke-width="2" stroke-miterlimit="8" fill="none" fill-rule="evenodd"/><path d="M163.214 172.2C163.214 167.119 167.377 163 172.512 163L209.702 163C214.837 163 219 167.119 219 172.2 218.932 178.111 218.863 184.022 218.795 189.933 162.962 189.981 219.457 190.184 163.009 189.527 162.941 183.549 163.282 178.179 163.214 172.2Z" fill="#FFFF00" fill-rule="evenodd"/><path d="M163 20.3335C163 15.1788 167.179 11 172.334 11L209.666 11C214.821 11 219 15.1788 219 20.3335L219 58.6665C219 63.8213 214.821 68 209.666 68L172.334 68C167.179 68 163 63.8213 163 58.6665Z" fill="#FFFFFF" fill-rule="evenodd"/><path d="M238 20.5001C238 15.2533 242.253 11 247.5 11L285.5 11C290.747 11 295 15.2533 295 20.5001L295 134.5C295 139.747 290.747 144 285.5 144L247.5 144C242.253 144 238 139.747 238 134.5Z" fill="#FFFFFF" fill-rule="evenodd"/><path d="M238 57 294.693 57.0001" stroke="#FF0000" stroke-width="2" stroke-miterlimit="8" fill="none" fill-rule="evenodd"/><path d="M238 98 294.693 98.0001" stroke="#FF0000" stroke-width="2" stroke-miterlimit="8" fill="none" fill-rule="evenodd"/><path d="M238 172.334C238 167.179 242.179 163 247.333 163L285.667 163C290.821 163 295 167.179 295 172.334L295 209.666C295 214.821 290.821 219 285.667 219L247.333 219C242.179 219 238 214.821 238 209.666Z" fill="#FFFF00" fill-rule="evenodd"/><path d="M12 247.333C12 242.179 16.1788 238 21.3335 238L58.6665 238C63.8212 238 68 242.179 68 247.333L68 285.667C68 290.821 63.8212 295 58.6665 295L21.3335 295C16.1788 295 12 290.821 12 285.667Z" fill="#FFFFFF" fill-rule="evenodd"/><path d="M12 256 68.2733 256" stroke="#FF0000" stroke-width="2" stroke-miterlimit="8" fill="none" fill-rule="evenodd"/><path d="M11.4219 247.315C11.4219 242.171 15.6438 238 20.8517 238L58.5701 238C63.7781 238 68 242.171 68 247.315 67.9307 253.3 67.8614 248.81 67.7921 254.795 11.1664 254.843 67.0078 254.638 11.0059 255 10.9366 248.947 11.4912 253.368 11.4219 247.315Z" fill="#FFFF00" fill-rule="evenodd"/><path d="M87 247.333C87 242.179 91.1788 238 96.3335 238L133.666 238C138.821 238 143 242.179 143 247.333L143 285.667C143 290.821 138.821 295 133.666 295L96.3335 295C91.1788 295 87 290.821 87 285.667Z" fill="#FFFFFF" fill-rule="evenodd"/><path d="M87 256 143.273 256" stroke="#FF0000" stroke-width="2" stroke-miterlimit="8" fill="none" fill-rule="evenodd"/><path d="M87.4219 247.315C87.4219 242.171 91.6438 238 96.8518 238L134.57 238C139.778 238 144 242.171 144 247.315 143.931 253.3 143.861 248.81 143.792 254.795 87.1664 254.843 143.008 254.638 87.0059 255 86.9366 248.947 87.4912 253.368 87.4219 247.315Z" fill="#FFFF00" fill-rule="evenodd"/><path d="M163 247.333C163 242.179 167.179 238 172.334 238L209.666 238C214.821 238 219 242.179 219 247.333L219 285.667C219 290.821 214.821 295 209.666 295L172.334 295C167.179 295 163 290.821 163 285.667Z" fill="#FFFFFF" fill-rule="evenodd"/><path d="M163 256 219.273 256" stroke="#FF0000" stroke-width="2" stroke-miterlimit="8" fill="none" fill-rule="evenodd"/><path d="M163.414 247.315C163.414 242.171 167.562 238 172.679 238L209.736 238C214.852 238 219 242.171 219 247.315 218.932 253.3 218.864 248.81 218.796 254.795 163.163 254.843 218.025 254.638 163.006 255 162.938 248.947 163.483 253.368 163.414 247.315Z" fill="#FFFF00" fill-rule="evenodd"/><path d="M238 247.5C238 242.253 242.253 238 247.5 238L285.5 238C290.747 238 295 242.253 295 247.5L295 285.5C295 290.747 290.747 295 285.5 295L247.5 295C242.253 295 238 290.747 238 285.5Z" fill="#FFFFFF" fill-rule="evenodd"/><path d="M238 256 294.273 256" stroke="#FF0000" stroke-width="2" stroke-miterlimit="8" fill="none" fill-rule="evenodd"/><path d="M238.422 247.315C238.422 242.171 242.644 238 247.852 238L285.57 238C290.778 238 295 242.171 295 247.315 294.931 253.3 294.861 248.81 294.792 254.795 238.166 254.843 294.008 254.638 238.006 255 237.937 248.947 238.491 253.368 238.422 247.315Z" fill="#FFFF00" fill-rule="evenodd"/><path d="M12 323.334C12 318.179 16.1788 314 21.3335 314L58.6665 314C63.8212 314 68 318.179 68 323.334L68 360.666C68 365.821 63.8212 370 58.6665 370L21.3335 370C16.1788 370 12 365.821 12 360.666Z" fill="#FFFFFF" fill-rule="evenodd"/><path d="M12 331 68.2733 331" stroke="#FF0000" stroke-width="2" stroke-miterlimit="8" fill="none" fill-rule="evenodd"/><path d="M11.4219 323.315C11.4219 318.171 15.6438 314 20.8517 314L58.5701 314C63.7781 314 68 318.171 68 323.315 67.9307 329.3 67.8614 324.81 67.7921 330.795 11.1664 330.843 67.0078 330.638 11.0059 331 10.9366 324.947 11.4912 329.368 11.4219 323.315Z" fill="#FFFF00" fill-rule="evenodd"/><path d="M87 323.334C87 318.179 91.1788 314 96.3335 314L133.666 314C138.821 314 143 318.179 143 323.334L143 360.666C143 365.821 138.821 370 133.666 370L96.3335 370C91.1788 370 87 365.821 87 360.666Z" fill="#FFFFFF" fill-rule="evenodd"/><path d="M87 331 143.273 331" stroke="#FF0000" stroke-width="2" stroke-miterlimit="8" fill="none" fill-rule="evenodd"/><path d="M87.4219 323.315C87.4219 318.171 91.6438 314 96.8518 314L134.57 314C139.778 314 144 318.171 144 323.315 143.931 329.3 143.861 324.81 143.792 330.795 87.1664 330.843 143.008 330.638 87.0059 331 86.9366 324.947 87.4912 329.368 87.4219 323.315Z" fill="#FFFF00" fill-rule="evenodd"/><path d="M163 323.334C163 318.179 167.179 314 172.334 314L209.666 314C214.821 314 219 318.179 219 323.334L219 360.666C219 365.821 214.821 370 209.666 370L172.334 370C167.179 370 163 365.821 163 360.666Z" fill="#FFFFFF" fill-rule="evenodd"/><path d="M163 331 219.273 331" stroke="#FF0000" stroke-width="2" stroke-miterlimit="8" fill="none" fill-rule="evenodd"/><path d="M163.414 323.315C163.414 318.171 167.562 314 172.679 314L209.736 314C214.852 314 219 318.171 219 323.315 218.932 329.3 218.864 324.81 218.796 330.795 163.163 330.843 218.025 330.638 163.006 331 162.938 324.947 163.483 329.368 163.414 323.315Z" fill="#FFFF00" fill-rule="evenodd"/><path d="M238 323.333C238 318.179 242.179 314 247.333 314L285.667 314C290.821 314 295 318.179 295 323.333L295 360.667C295 365.821 290.821 370 285.667 370L247.333 370C242.179 370 238 365.821 238 360.667Z" fill="#FFFFFF" fill-rule="evenodd"/><path d="M238 331 294.273 331" stroke="#FF0000" stroke-width="2" stroke-miterlimit="8" fill="none" fill-rule="evenodd"/><path d="M238.422 323.315C238.422 318.171 242.644 314 247.852 314L285.57 314C290.778 314 295 318.171 295 323.315 294.931 329.3 294.861 324.81 294.792 330.795 238.166 330.843 294.008 330.638 238.006 331 237.937 324.947 238.491 329.368 238.422 323.315Z" fill="#FFFF00" fill-rule="evenodd"/><path d="M12 398.333C12 393.179 16.1788 389 21.3335 389L58.6665 389C63.8212 389 68 393.179 68 398.333L68 436.667C68 441.821 63.8212 446 58.6665 446L21.3335 446C16.1788 446 12 441.821 12 436.667Z" fill="#FFFFFF" fill-rule="evenodd"/><path d="M12 407 68.2733 407" stroke="#FF0000" stroke-width="2" stroke-miterlimit="8" fill="none" fill-rule="evenodd"/><path d="M11.4219 398.863C11.4219 393.416 15.6438 389 20.8517 389L58.5701 389C63.7781 389 68 393.416 68 398.863 67.9307 405.2 67.8614 400.446 67.7921 406.782 11.1664 406.834 67.0078 406.616 11.0059 407 10.9366 400.591 11.4912 405.272 11.4219 398.863Z" fill="#FFFF00" fill-rule="evenodd"/><path d="M87 398.333C87 393.179 91.1788 389 96.3335 389L133.666 389C138.821 389 143 393.179 143 398.333L143 436.667C143 441.821 138.821 446 133.666 446L96.3335 446C91.1788 446 87 441.821 87 436.667Z" fill="#FFFFFF" fill-rule="evenodd"/><path d="M87 407 143.273 407" stroke="#FF0000" stroke-width="2" stroke-miterlimit="8" fill="none" fill-rule="evenodd"/><path d="M87.4219 398.863C87.4219 393.416 91.6438 389 96.8518 389L134.57 389C139.778 389 144 393.416 144 398.863 143.931 405.2 143.861 400.446 143.792 406.782 87.1664 406.834 143.008 406.616 87.0059 407 86.9366 400.591 87.4912 405.272 87.4219 398.863Z" fill="#FFFF00" fill-rule="evenodd"/><path d="M163 398.333C163 393.179 167.179 389 172.334 389L209.666 389C214.821 389 219 393.179 219 398.333L219 436.667C219 441.821 214.821 446 209.666 446L172.334 446C167.179 446 163 441.821 163 436.667Z" fill="#FFFFFF" fill-rule="evenodd"/><path d="M163 407 219.273 407" stroke="#FF0000" stroke-width="2" stroke-miterlimit="8" fill="none" fill-rule="evenodd"/><path d="M163.414 398.863C163.414 393.416 167.562 389 172.679 389L209.736 389C214.852 389 219 393.416 219 398.863 218.932 405.2 218.864 400.446 218.796 406.782 163.163 406.834 218.025 406.616 163.006 407 162.938 400.591 163.483 405.272 163.414 398.863Z" fill="#FFFF00" fill-rule="evenodd"/><path d="M238 398.5C238 393.253 242.253 389 247.5 389L285.5 389C290.747 389 295 393.253 295 398.5L295 436.5C295 441.747 290.747 446 285.5 446L247.5 446C242.253 446 238 441.747 238 436.5Z" fill="#FFFFFF" fill-rule="evenodd"/><path d="M238 407 294.273 407" stroke="#FF0000" stroke-width="2" stroke-miterlimit="8" fill="none" fill-rule="evenodd"/><path d="M238.422 398.863C238.422 393.416 242.644 389 247.852 389L285.57 389C290.778 389 295 393.416 295 398.863 294.931 405.2 294.861 400.446 294.792 406.782 238.166 406.834 294.008 406.616 238.006 407 237.937 400.591 238.491 405.272 238.422 398.863Z" fill="#FFFF00" fill-rule="evenodd"/><path d="M12 474.333C12 469.179 16.1788 465 21.3335 465L58.6665 465C63.8212 465 68 469.179 68 474.333L68 512.667C68 517.821 63.8212 522 58.6665 522L21.3335 522C16.1788 522 12 517.821 12 512.667Z" fill="#FFFFFF" fill-rule="evenodd"/><path d="M12 483 68.2733 483" stroke="#FF0000" stroke-width="2" stroke-miterlimit="8" fill="none" fill-rule="evenodd"/><path d="M11.4219 474.315C11.4219 469.171 15.6438 465 20.8517 465L58.5701 465C63.7781 465 68 469.171 68 474.315 67.9307 480.3 67.8614 475.81 67.7921 481.795 11.1664 481.843 67.0078 481.638 11.0059 482 10.9366 475.947 11.4912 480.368 11.4219 474.315Z" fill="#FFFF00" fill-rule="evenodd"/><path d="M87 474.333C87 469.179 91.1788 465 96.3335 465L133.666 465C138.821 465 143 469.179 143 474.333L143 512.667C143 517.821 138.821 522 133.666 522L96.3335 522C91.1788 522 87 517.821 87 512.667Z" fill="#FFFFFF" fill-rule="evenodd"/><path d="M87 483 143.273 483" stroke="#FF0000" stroke-width="2" stroke-miterlimit="8" fill="none" fill-rule="evenodd"/><path d="M87.4219 474.315C87.4219 469.171 91.6438 465 96.8518 465L134.57 465C139.778 465 144 469.171 144 474.315 143.931 480.3 143.861 475.81 143.792 481.795 87.1664 481.843 143.008 481.638 87.0059 482 86.9366 475.947 87.4912 480.368 87.4219 474.315Z" fill="#FFFF00" fill-rule="evenodd"/><path d="M163 474.333C163 469.179 167.179 465 172.334 465L209.666 465C214.821 465 219 469.179 219 474.333L219 512.667C219 517.821 214.821 522 209.666 522L172.334 522C167.179 522 163 517.821 163 512.667Z" fill="#FFFFFF" fill-rule="evenodd"/><path d="M163 483 219.273 483" stroke="#FF0000" stroke-width="2" stroke-miterlimit="8" fill="none" fill-rule="evenodd"/><path d="M163.414 474.315C163.414 469.171 167.562 465 172.679 465L209.736 465C214.852 465 219 469.171 219 474.315 218.932 480.3 218.864 475.81 218.796 481.795 163.163 481.843 218.025 481.638 163.006 482 162.938 475.947 163.483 480.368 163.414 474.315Z" fill="#FFFF00" fill-rule="evenodd"/><path d="M238 474.5C238 469.253 242.253 465 247.5 465L285.5 465C290.747 465 295 469.253 295 474.5L295 512.5C295 517.747 290.747 522 285.5 522L247.5 522C242.253 522 238 517.747 238 512.5Z" fill="#FFFFFF" fill-rule="evenodd"/><path d="M238 483 294.273 483" stroke="#FF0000" stroke-width="2" stroke-miterlimit="8" fill="none" fill-rule="evenodd"/><path d="M238.422 474.315C238.422 469.171 242.644 465 247.852 465L285.57 465C290.778 465 295 469.171 295 474.315 294.931 480.3 294.861 475.81 294.792 481.795 238.166 481.843 294.008 481.638 238.006 482 237.937 475.947 238.491 480.368 238.422 474.315Z" fill="#FFFF00" fill-rule="evenodd"/><text fill="#FF0000" font-family="Arial Narrow,Arial Narrow_MSFontService,sans-serif" font-weight="700" font-stretch="condensed" font-size="18.6667" transform="translate(23.1017 34)">LD 1</text><text fill="#FF0000" font-family="Arial Narrow,Arial Narrow_MSFontService,sans-serif" font-weight="700" font-stretch="condensed" font-size="18.6667" transform="translate(93.6284 34)">SAV 1</text><text fill="#FF0000" font-family="Arial Narrow,Arial Narrow_MSFontService,sans-serif" font-weight="700" font-stretch="condensed" font-size="18.6667" transform="translate(21.6332 109)">LD P</text><text fill="#FF0000" font-family="Arial Narrow,Arial Narrow_MSFontService,sans-serif" font-weight="700" font-stretch="condensed" font-size="18.6667" transform="translate(89.7144 107)">SAV P</text><text fill="#FF0000" font-family="Arial Narrow,Arial Narrow_MSFontService,sans-serif" font-weight="700" font-stretch="condensed" font-size="18.6667" transform="translate(178.533 110)">WP</text><text fill="#FF0000" font-family="Arial Narrow,Arial Narrow_MSFontService,sans-serif" font-weight="700" font-stretch="condensed" font-size="18.6667" transform="translate(15.0672 183)">S DBL</text><text fill="#FF0000" font-family="Arial Narrow,Arial Narrow_MSFontService,sans-serif" font-weight="700" font-stretch="condensed" font-size="26.6667" transform="translate(108.735 187)">+</text><text fill="#FF0000" font-family="Arial Narrow,Arial Narrow_MSFontService,sans-serif" font-weight="700" font-stretch="condensed" font-size="24" transform="translate(176.821 185)">←</text><text fill="#FF0000" font-family="Arial Narrow,Arial Narrow_MSFontService,sans-serif" font-weight="700" font-stretch="condensed" font-size="18.6667" transform="translate(242.963 200)">SHIFT</text><text fill="#FF0000" font-family="Arial Narrow,Arial Narrow_MSFontService,sans-serif" font-weight="700" font-stretch="condensed" font-size="14.6667" transform="translate(23.1404 251)">CALC</text><text fill="#FF0000" font-family="Arial Narrow,Arial Narrow_MSFontService,sans-serif" font-weight="700" font-stretch="condensed" font-size="14.6667" transform="translate(100.116 252)">DEP</text><text fill="#FF0000" font-family="Arial Narrow,Arial Narrow_MSFontService,sans-serif" font-weight="700" font-stretch="condensed" font-size="14.6667" transform="translate(172.71 252)">EXEC</text><text fill="#FF0000" font-family="Arial Narrow,Arial Narrow_MSFontService,sans-serif" font-weight="700" font-stretch="condensed" font-size="14.6667" transform="translate(253.79 252)">FILL</text><text fill="#FF0000" font-family="Arial Narrow,Arial Narrow_MSFontService,sans-serif" font-weight="700" font-stretch="condensed" font-size="14.6667" transform="translate(23.172 328)">JUMP</text><text fill="#FF0000" font-family="Arial Narrow,Arial Narrow_MSFontService,sans-serif" font-weight="700" font-stretch="condensed" font-size="14.6667" transform="translate(102.108 327)">VER</text><text fill="#FF0000" font-family="Arial Narrow,Arial Narrow_MSFontService,sans-serif" font-weight="700" font-stretch="condensed" font-size="14.6667" transform="translate(174.866 327)">ASCII</text><text fill="#FF0000" font-family="Arial Narrow,Arial Narrow_MSFontService,sans-serif" font-weight="700" font-stretch="condensed" font-size="14.6667" transform="translate(245.935 329)">B MOV</text><text fill="#FF0000" font-family="Arial Narrow,Arial Narrow_MSFontService,sans-serif" font-weight="700" font-stretch="condensed" font-size="14.6667" transform="translate(21.3833 403)">USR 4</text><text fill="#FF0000" font-family="Arial Narrow,Arial Narrow_MSFontService,sans-serif" font-weight="700" font-stretch="condensed" font-size="14.6667" transform="translate(95.3469 403)">USR 5</text><text fill="#FF0000" font-family="Arial Narrow,Arial Narrow_MSFontService,sans-serif" font-weight="700" font-stretch="condensed" font-size="14.6667" transform="translate(171.517 403)">USR 6</text><text fill="#FF0000" font-family="Arial Narrow,Arial Narrow_MSFontService,sans-serif" font-weight="700" font-stretch="condensed" font-size="14.6667" transform="translate(248.017 403)">USR 7</text><text fill="#FF0000" font-family="Arial Narrow,Arial Narrow_MSFontService,sans-serif" font-weight="700" font-stretch="condensed" font-size="14.6667" transform="translate(20.3172 479)">USR 0</text><text fill="#FF0000" font-family="Arial Narrow,Arial Narrow_MSFontService,sans-serif" font-weight="700" font-stretch="condensed" font-size="14.6667" transform="translate(95.8364 479)">USR 1</text><text fill="#FF0000" font-family="Arial Narrow,Arial Narrow_MSFontService,sans-serif" font-weight="700" font-stretch="condensed" font-size="14.6667" transform="translate(174.013 479)">USR 2</text><text fill="#FF0000" font-family="Arial Narrow,Arial Narrow_MSFontService,sans-serif" font-weight="700" font-stretch="condensed" font-size="14.6667" transform="translate(248.017 479)">USR 3</text><text font-family="Arial Narrow,Arial Narrow_MSFontService,sans-serif" font-weight="700" font-stretch="condensed" font-size="18.6667" transform="translate(21.4378 62)">LD 2</text><text font-family="Arial Narrow,Arial Narrow_MSFontService,sans-serif" font-weight="700" font-stretch="condensed" font-size="18.6667" transform="translate(92.9176 61)">SAV 2</text><text font-family="Arial Narrow,Arial Narrow_MSFontService,sans-serif" font-weight="700" font-stretch="condensed" font-size="18.6667" transform="translate(176.739 48)">RST</text><text font-family="Arial Narrow,Arial Narrow_MSFontService,sans-serif" font-weight="700" font-stretch="condensed" font-size="18.6667" transform="translate(255.357 42)">ON</text><text font-family="Arial Narrow,Arial Narrow_MSFontService,sans-serif" font-weight="700" font-stretch="condensed" font-size="18.6667" transform="translate(251.207 126)">OFF</text><text font-family="Arial Narrow,Arial Narrow_MSFontService,sans-serif" font-weight="700" font-stretch="condensed" font-size="14" transform="translate(245.623 80)">DEBUG</text><text font-family="Arial Narrow,Arial Narrow_MSFontService,sans-serif" font-weight="700" font-stretch="condensed" font-size="18.6667" transform="translate(28.058 134)">GO</text><text font-family="Arial Narrow,Arial Narrow_MSFontService,sans-serif" font-weight="700" font-stretch="condensed" font-size="18.6667" transform="translate(97.9407 133)">REG</text><text font-family="Arial Narrow,Arial Narrow_MSFontService,sans-serif" font-weight="700" font-stretch="condensed" font-size="18.6667" transform="translate(173.763 134)">MEM</text><text font-family="Arial Narrow,Arial Narrow_MSFontService,sans-serif" font-weight="700" font-stretch="condensed" font-size="18.6667" transform="translate(25.8881 210)">CR</text><text font-family="Arial Narrow,Arial Narrow_MSFontService,sans-serif" font-weight="700" font-stretch="condensed" font-size="37.3333" transform="translate(110.068 213)">-</text><text font-family="Arial Narrow,Arial Narrow_MSFontService,sans-serif" font-weight="700" font-stretch="condensed" font-size="24" transform="translate(178.163 208)">→</text><text font-family="Arial Narrow,Arial Narrow_MSFontService,sans-serif" font-weight="700" font-stretch="condensed" font-size="18.6667" transform="translate(35.2329 280)">C</text><text font-family="Arial Narrow,Arial Narrow_MSFontService,sans-serif" font-weight="700" font-stretch="condensed" font-size="18.6667" transform="translate(108.941 280)">D</text><text font-family="Arial Narrow,Arial Narrow_MSFontService,sans-serif" font-weight="700" font-stretch="condensed" font-size="18.6667" transform="translate(187.246 280)">E</text><path d="M236 247.333C236 242.179 240.179 238 245.334 238L282.667 238C287.821 238 292 242.179 292 247.333L292 285.667C292 290.821 287.821 295 282.667 295L245.334 295C240.179 295 236 290.821 236 285.667Z" fill="#FFFFFF" fill-rule="evenodd"/><path d="M236 256 292.273 256" stroke="#FF0000" stroke-width="2" stroke-miterlimit="8" fill="none" fill-rule="evenodd"/><path d="M236.414 247.315C236.414 242.171 240.562 238 245.679 238L282.736 238C287.852 238 292 242.171 292 247.315 291.932 253.3 291.864 248.81 291.796 254.795 236.163 254.843 291.025 254.638 236.006 255 235.938 248.947 236.483 253.368 236.414 247.315Z" fill="#FFFF00" fill-rule="evenodd"/><text font-family="Arial Narrow,Arial Narrow_MSFontService,sans-serif" font-weight="700" font-stretch="condensed" font-size="18.6667" transform="translate(260.869 280)">F</text><text font-family="Arial Narrow,Arial Narrow_MSFontService,sans-serif" font-weight="700" font-stretch="condensed" font-size="18.6667" transform="translate(35.6414 356)">8</text><text font-family="Arial Narrow,Arial Narrow_MSFontService,sans-serif" font-weight="700" font-stretch="condensed" font-size="18.6667" transform="translate(111.036 356)">9</text><text font-family="Arial Narrow,Arial Narrow_MSFontService,sans-serif" font-weight="700" font-stretch="condensed" font-size="18.6667" transform="translate(186.179 354)">A</text><text font-family="Arial Narrow,Arial Narrow_MSFontService,sans-serif" font-weight="700" font-stretch="condensed" font-size="18.6667" transform="translate(260.874 353)">B</text><text font-family="Arial Narrow,Arial Narrow_MSFontService,sans-serif" font-weight="700" font-stretch="condensed" font-size="18.6667" transform="translate(38.1919 431)">4</text><text font-family="Arial Narrow,Arial Narrow_MSFontService,sans-serif" font-weight="700" font-stretch="condensed" font-size="18.6667" transform="translate(112.996 430)">5</text><text font-family="Arial Narrow,Arial Narrow_MSFontService,sans-serif" font-weight="700" font-stretch="condensed" font-size="18.6667" transform="translate(187.429 428)">6</text><text font-family="Arial Narrow,Arial Narrow_MSFontService,sans-serif" font-weight="700" font-stretch="condensed" font-size="18.6667" transform="translate(262.074 430)">7</text><text font-family="Arial Narrow,Arial Narrow_MSFontService,sans-serif" font-weight="700" font-stretch="condensed" font-size="18.6667" transform="translate(36.4829 504)">0</text><text font-family="Arial Narrow,Arial Narrow_MSFontService,sans-serif" font-weight="700" font-stretch="condensed" font-size="18.6667" transform="translate(110.655 506)">1</text><text font-family="Arial Narrow,Arial Narrow_MSFontService,sans-serif" font-weight="700" font-stretch="condensed" font-size="18.6667" transform="translate(185.913 506)">2</text><text font-family="Arial Narrow,Arial Narrow_MSFontService,sans-serif" font-weight="700" font-stretch="condensed" font-size="18.6667" transform="translate(260.796 506)">3</text></g></svg>